<?xml version="1.0" encoding="utf-8"?>
<!-- Generator: Adobe Illustrator 19.0.0, SVG Export Plug-In . SVG Version: 6.00 Build 0)  -->
<svg version="1.1" id="Layer_1" xmlns="http://www.w3.org/2000/svg" xmlns:xlink="http://www.w3.org/1999/xlink" x="0px" y="0px"
	 viewBox="974 236.7 2560 321.3" style="enable-background:new 974 236.7 2560 321.3;" xml:space="preserve">
<style type="text/css">
	.st0{fill:#E12A2A;}
	.st1{fill:#201F1F;}
</style>
<g>
	<g>
		<path class="st0" d="M1239,397.3c0,33.3-10.2,62.7-26.9,88.3c-21.8,33.3-56.3,57.6-96,66.6c-10.2,2.6-20.5,3.8-30.7,3.8
			c-1.3,0-110.1,0-110.1,0c0-38.4,32-70.4,70.4-70.4h38.4c47.4-1.3,84.5-39.7,84.5-88.3l0,0c0-48.6-39.7-88.3-88.3-88.3
			c-12.8,0-24.3,2.6-35.8,7.7v80.6c-0.1,38.4-32.1,70.4-70.5,70.4V278.3c19.2-17.9,43.5-30.7,70.4-35.8c11.5-3.8,23-5.1,35.8-5.1
			c55,0,103.7,28.2,131.8,70.4C1228.7,333.3,1239,364.1,1239,397.3L1239,397.3z"/>
	</g>
</g>
<g>
	<g>
		<path class="st0" d="M1377.2,237.3l-158.7,318.8h105c38.4,0,70.4-32,70.4-70.4H1335l42.2-89.6l64,129.3
			c10.2,17.9,34.6,30.7,57.6,30.7h35.8L1377.2,237.3z"/>
	</g>
</g>
<g>
	<g>
		<path class="st0" d="M1652.4,387.1l129.3-129.3c-28.2-28.2-71.7-28.2-99.8,0l-76.9,76.8v-26.9c0-38.4-32-70.4-70.4-70.4v247
			c0,38.4,30.7,70.4,70.4,70.4V439.6l94.7,94.7c26.9,28.2,71.7,28.2,99.8,0L1652.4,387.1z"/>
	</g>
</g>
<g>
	<g>
		<path class="st1" d="M1981.4,361.5H1920c-14.1,0-26.9-11.5-26.9-26.9c0-14.1,11.5-26.9,26.9-26.9h61.4c38.4,0,70.4-32,70.4-70.4
			h-131.9c-53.8,0-97.3,43.5-97.3,97.3s43.5,97.3,97.3,97.3h61.4c14.1,0,26.9,11.5,26.9,26.9c0,14.1-11.5,26.9-26.9,26.9h-158.7
			c0,38.4,32,70.4,70.4,70.4h88.3c53.8,0,97.3-43.5,97.3-97.3S2035.1,361.5,1981.4,361.5z"/>
	</g>
</g>
<g>
	<g>
		<path class="st1" d="M2239.9,237.3h-131.8c0,38.4,32,70.4,70.4,70.4h61.4c14.1,0,26.9,11.5,26.9,26.9c0,14.1-11.5,26.9-26.9,26.9
			h-131.8v124.2c0,38.4,32,70.4,70.4,70.4V431.9c0,0,61.4,0,62.7,0c52.5,0,96-44.8,96-97.3S2293.7,237.3,2239.9,237.3z"/>
	</g>
</g>
<path class="st1" d="M2520.2,237.3c-88.3,0-158.7,71.7-158.7,158.7c0,88.3,70.4,158.7,158.7,158.7S2678.9,483,2678.9,396
	S2608.6,237.3,2520.2,237.3z M2520.2,480.5c-46.1,0-83.2-37.1-83.2-83.2s37.1-83.2,83.2-83.2s83.2,37.1,83.2,83.2
	C2604.7,443.4,2566.3,480.5,2520.2,480.5z"/>
<g>
	<g>
		<path class="st1" d="M2868.4,429.3c39.7-11.5,70.4-49.9,70.4-93.4c0-53.8-43.5-97.3-97.3-97.3h-131.8c0,38.4,32,70.4,70.4,70.4
			h61.4c14.1,0,26.9,11.5,26.9,26.9c0,14.1-11.5,26.9-26.9,26.9h-131.8V487c0,38.4,32,70.4,70.4,70.4V442.1l94.7,94.7
			c26.9,28.2,71.7,28.2,99.8,0L2868.4,429.3z"/>
	</g>
</g>
<g>
	<g>
		<path class="st1" d="M3046.3,237.3c-38.4,0-70.4,32-70.4,70.4h106.2v247c38.4,0,70.4-32,70.4-70.4V309h35.8
			c38.4,0,70.4-32,70.4-70.4h-212.5v-1.3H3046.3z"/>
	</g>
</g>
<g>
	<g>
		<path class="st1" d="M3436.7,361.5h-61.4c-14.1,0-26.9-11.5-26.9-26.9c0-14.1,11.5-26.9,26.9-26.9h61.4c38.4,0,70.4-32,70.4-70.4
			h-131.8c-53.8,0-97.3,43.5-97.3,97.3s43.5,97.3,97.3,97.3h61.4c14.1,0,26.9,11.5,26.9,26.9c0,14.1-11.5,26.9-26.9,26.9H3278
			c0,38.4,32,70.4,70.4,70.4h88.3c53.8,0,97.3-43.5,97.3-97.3S3490.5,361.5,3436.7,361.5z"/>
	</g>
</g>
</svg>
