<?xml version="1.0" encoding="utf-8"?>
<!-- Generator: Adobe Illustrator 19.0.0, SVG Export Plug-In . SVG Version: 6.00 Build 0)  -->
<svg version="1.1" id="Layer_1" xmlns="http://www.w3.org/2000/svg" xmlns:xlink="http://www.w3.org/1999/xlink" x="0px" y="0px"
	 viewBox="-225 372 160 50" style="enable-background:new -225 372 160 50;" xml:space="preserve">
<style type="text/css">
	.st0{fill:none;}
	.st1{fill:#FFFFFF;}
</style>
<rect x="-225" y="371.8" class="st0" width="160" height="50.4"/>
<path class="st1" d="M-202.5,397c0,1.9-0.6,3.6-1.5,5c-1.2,1.9-3.2,3.3-5.4,3.8c-0.6,0.1-1.2,0.2-1.7,0.2c-0.1,0-6.2,0-6.2,0
	c0-2.2,1.8-4,4-4h2.2c2.7-0.1,4.8-2.2,4.8-5l0,0c0-2.8-2.2-5-5-5c-0.7,0-1.4,0.1-2,0.4v4.6c0,2.2-1.8,4-4,4v-10.7c1.1-1,2.5-1.7,4-2
	c0.7-0.2,1.3-0.3,2-0.3c3.1,0,5.9,1.6,7.5,4C-203.1,393.4-202.5,395.1-202.5,397L-202.5,397z M-194.7,387.9l-9,18.1h5.9
	c2.2,0,4-1.8,4-4h-3.3l2.4-5.1l3.6,7.3c0.6,1,2,1.7,3.3,1.7h2L-194.7,387.9z M-179.1,396.4l7.3-7.3c-1.6-1.6-4.1-1.6-5.7,0l-4.4,4.4
	v-1.5c0-2.2-1.8-4-4-4v14c0,2.2,1.7,4,4,4v-6.5l5.4,5.4c1.5,1.6,4.1,1.6,5.7,0L-179.1,396.4z M-160.4,395h-3.5
	c-0.8,0-1.5-0.7-1.5-1.5c0-0.8,0.7-1.5,1.5-1.5h3.5c2.2,0,4-1.8,4-4h-7.5c-3,0-5.5,2.5-5.5,5.5s2.5,5.5,5.5,5.5h3.5
	c0.8,0,1.5,0.7,1.5,1.5c0,0.8-0.7,1.5-1.5,1.5h-9c0,2.2,1.8,4,4,4h5c3,0,5.5-2.5,5.5-5.5S-157.4,395-160.4,395z M-145.8,387.9h-7.5
	c0,2.2,1.8,4,4,4h3.5c0.8,0,1.5,0.7,1.5,1.5c0,0.8-0.7,1.5-1.5,1.5h-7.5v7c0,2.2,1.8,4,4,4v-7c0,0,3.5,0,3.6,0c3,0,5.4-2.5,5.4-5.5
	S-142.8,387.9-145.8,387.9z M-129.9,387.9c-5,0-9,4.1-9,9c0,5,4,9,9,9s9-4.1,9-9S-124.9,387.9-129.9,387.9z M-129.9,401.7
	c-2.6,0-4.7-2.1-4.7-4.7s2.1-4.7,4.7-4.7c2.6,0,4.7,2.1,4.7,4.7C-125.1,399.6-127.3,401.7-129.9,401.7z M-110.2,398.8
	c2.2-0.7,4-2.8,4-5.3c0-3-2.5-5.5-5.5-5.5h-7.5c0,2.2,1.8,4,4,4h3.5c0.8,0,1.5,0.7,1.5,1.5c0,0.8-0.7,1.5-1.5,1.5h-7.5v7
	c0,2.2,1.8,4,4,4v-6.5l5.4,5.4c1.5,1.6,4.1,1.6,5.7,0L-110.2,398.8z M-100.1,387.9c-2.2,0-4,1.8-4,4h6v14c2.2,0,4-1.8,4-4V392h2
	c2.2,0,4-1.8,4-4L-100.1,387.9L-100.1,387.9L-100.1,387.9z M-78,395h-3.5c-0.8,0-1.5-0.7-1.5-1.5c0-0.8,0.7-1.5,1.5-1.5h3.5
	c2.2,0,4-1.8,4-4h-7.5c-3,0-5.5,2.5-5.5,5.5s2.5,5.5,5.5,5.5h3.5c0.8,0,1.5,0.7,1.5,1.5c0,0.8-0.7,1.5-1.5,1.5h-9c0,2.2,1.8,4,4,4h5
	c3,0,5.5-2.5,5.5-5.5S-75,395-78,395z"/>
</svg>
