<?xml version="1.0" encoding="utf-8"?>
<!-- Generator: Adobe Illustrator 18.0.0, SVG Export Plug-In . SVG Version: 6.00 Build 0)  -->
<!DOCTYPE svg PUBLIC "-//W3C//DTD SVG 1.1//EN" "http://www.w3.org/Graphics/SVG/1.1/DTD/svg11.dtd">
<svg version="1.1" id="Layer_1" xmlns="http://www.w3.org/2000/svg" xmlns:xlink="http://www.w3.org/1999/xlink" x="0px" y="0px"
	 viewBox="87.5 2368.6 160 50" enable-background="new 87.5 2368.6 160 50" xml:space="preserve">
<path fill="#FFFFFF" d="M164.1,2384.6c-1.2-0.4-2.4-0.6-3.6-0.6c-4.4,0-8.2,2.7-9.8,6.9c-0.9,2.5-0.8,5.4,0.3,7.9
	c1.1,2.4,3,4.2,5.3,5.1l0.9-2.2c-3.7-1.6-5.7-6-4.2-9.9c1.2-3.2,4.2-5.3,7.5-5.3c0.9,0,1.8,0.1,2.7,0.4c4.1,1.5,6.3,6,4.8,10.2
	l-2.7,7.4h2.5l2.4-6.5c1.2-3.4,0.6-7.4-1.8-10.2C167.4,2386.2,165.9,2385.2,164.1,2384.6z M138,2383.4L138,2383.4
	c-5.7,0-10.3,4.8-10.3,10.5c0,1.8,0.4,3.6,1.3,5.3c1.8,3.2,5.3,5.3,9,5.3h5.3l2.4-2.4h-7.8c-4.4,0-7.9-3.6-7.9-7.9
	c0-2.1,0.8-4.1,2.2-5.6c1.5-1.5,3.4-2.4,5.7-2.4c4.2,0,7.7,3.3,7.9,7.4h2.4C148,2387.9,143.5,2383.4,138,2383.4z M185.1,2383.8
	c-0.1,0-0.3,0-0.4,0c-0.6,0-1.2,0-1.8,0.1c-3.6,0.6-6.7,3.2-7.9,6.7l-3.7,10.5l1.5,3.2l4.6-12.9c1.1-3,3.9-5.1,7-5.3L185.1,2383.8z
	 M115.3,2383.5c-1.1,0-2,0.1-3,0.4l0.9,2.2c0.8-0.1,1.3-0.3,2.1-0.3c3.3,0,6.3,2.1,7.5,5.3c1.5,4.1-0.6,8.7-4.8,10.2
	c-0.9,0.3-1.8,0.4-2.7,0.4c-3.3,0-6.3-2.1-7.5-5.3l-3.6-9.9l-1.5,3.2l2.7,7.7c1.2,3.4,4.4,6,7.9,6.7c0.6,0.1,1.2,0.1,1.8,0.1
	c1.2,0,2.4-0.1,3.4-0.6c2.5-0.9,4.6-2.9,5.8-5.4c1.2-2.5,1.3-5.4,0.3-7.9C123.6,2386.2,119.7,2383.5,115.3,2383.5z M98.7,2396.6
	l-4.6-12.9l-1.5,3.2l3.7,10.5c1.2,3.4,4.4,6,7.9,6.7c0.6,0.1,1.2,0.1,1.8,0.1c0.1,0,0.3,0,0.4,0l-0.9-2.4
	C102.6,2401.7,99.7,2399.7,98.7,2396.6z M240,2387.6c-1.2-1.3-2.5-2.4-4.4-3c-5.4-2-11.2,0.9-13.2,6.2c-2,5.4,0.9,11.2,6.2,13.2
	c0.3,0.1,0.6,0.1,1.1,0.3l1.8-4.9c-0.3,0-0.8-0.1-1.1-0.3c-2.7-0.9-4.1-3.9-3.2-6.6c0.9-2.7,3.9-4.1,6.6-3.2s4.1,4.1,3.2,6.6l0,0
	l0,0l-3,8.2h5.6l2.2-6.5l0,0l0,0C243.3,2394.2,242.4,2390.3,240,2387.6z M196.6,2384.3c-1.8-0.6-3.6-0.8-5.4-0.4
	c-3.4,0.6-6.6,3-7.9,6.6l0,0l0,0l-2.5,7l3.2,6.6l1.2-3.4l3-8.4l0,0l0,0c0.9-2.7,3.9-4.1,6.6-3.2c2.7,0.9,4.1,3.9,3.2,6.6
	s-3.9,4.1-6.6,3.2c-0.3-0.1-0.6-0.3-0.9-0.4l-1.8,4.9c0.3,0.1,0.6,0.3,0.9,0.4c5.4,2,11.2-0.9,13.2-6.2
	C204.7,2392.1,201.9,2386.2,196.6,2384.3z M216.4,2398.8c-2.7-0.9-4.1-3.9-3.2-6.6c0.6-1.5,1.6-2.5,3.2-3.2l2-5.6
	c-3,0-6,1.2-7.9,3.4v-14.4l-4.9,5.1v2.5v18.9l4.9,5.1v-3.4c1.2,1.2,2.5,2.2,4.2,2.9c2.9,1.1,5.8,0.8,8.4-0.6l-2.2-4.6
	C219.6,2399.1,217.9,2399.4,216.4,2398.8z"/>
<rect x="87.5" y="2368.4" fill="none" width="160" height="50.4"/>
</svg>
