<?xml version="1.0" encoding="utf-8"?>
<!-- Generator: Adobe Illustrator 18.0.0, SVG Export Plug-In . SVG Version: 6.00 Build 0)  -->
<!DOCTYPE svg PUBLIC "-//W3C//DTD SVG 1.1//EN" "http://www.w3.org/Graphics/SVG/1.1/DTD/svg11.dtd">
<svg version="1.1" id="Layer_1" xmlns="http://www.w3.org/2000/svg" xmlns:xlink="http://www.w3.org/1999/xlink" x="0px" y="0px"
	 viewBox="-1.1 43.4 100 21.1" enable-background="new -1.1 43.4 100 21.1" xml:space="preserve">
<g>
	<path fill="#4285F4" d="M97.2,53.3c-0.8-0.9-1.7-1.6-2.9-2c-3.6-1.3-7.5,0.6-8.8,4.1c-1.3,3.6,0.6,7.5,4.1,8.8
		c0.2,0.1,0.4,0.1,0.7,0.2l1.2-3.3c-0.2,0-0.5-0.1-0.7-0.2c-1.8-0.6-2.7-2.6-2.1-4.4c0.6-1.8,2.6-2.7,4.4-2.1
		c1.8,0.6,2.7,2.7,2.1,4.4h0v0l-2,5.5h3.7l1.5-4.3v0v0C99.4,57.7,98.8,55.1,97.2,53.3z"/>
	<path fill="#4285F4" d="M68.3,51.1c-1.2-0.4-2.4-0.5-3.6-0.3c-2.3,0.4-4.4,2-5.3,4.4c0,0,0,0,0,0l0,0l-1.7,4.7l2.1,4.4l0.8-2.3
		l2-5.6l0,0l0,0c0.6-1.8,2.6-2.7,4.4-2.1c1.8,0.6,2.7,2.6,2.1,4.4c-0.6,1.8-2.6,2.7-4.4,2.1c-0.2-0.1-0.4-0.2-0.6-0.3l-1.2,3.3
		c0.2,0.1,0.4,0.2,0.6,0.3c3.6,1.3,7.5-0.6,8.8-4.1C73.7,56.3,71.8,52.4,68.3,51.1z"/>
	<path fill="#4285F4" d="M81.5,60.8c-1.8-0.6-2.7-2.6-2.1-4.4c0.4-1,1.1-1.7,2.1-2.1l1.3-3.7c-2,0-4,0.8-5.3,2.3v-9.6l-3.3,3.4v1.7
		V61l3.3,3.4v-2.3c0.8,0.8,1.7,1.5,2.8,1.9c1.9,0.7,3.9,0.5,5.6-0.4l-1.5-3.1C83.6,61,82.5,61.2,81.5,60.8z"/>
	<path fill="#444443" d="M46.6,51.3c-0.8-0.3-1.6-0.4-2.4-0.4c-2.9,0-5.5,1.8-6.5,4.6c-0.6,1.7-0.5,3.6,0.2,5.3
		c0.7,1.6,2,2.8,3.5,3.4l0.6-1.5c-2.5-1.1-3.8-4-2.8-6.6c0.8-2.1,2.8-3.5,5-3.5c0.6,0,1.2,0.1,1.8,0.3c2.7,1,4.2,4,3.2,6.8l-1.8,4.9
		h1.7l1.6-4.3c0.8-2.3,0.4-4.9-1.2-6.8C48.8,52.4,47.8,51.7,46.6,51.3z"/>
	<path fill="#444443" d="M29.2,50.5L29.2,50.5c-3.8,0-6.9,3.2-6.9,7c0,1.2,0.3,2.4,0.9,3.5c1.2,2.1,3.5,3.5,6,3.5l3.5,0l1.6-1.6
		c0,0-5.2,0-5.2,0c-2.9,0-5.3-2.4-5.3-5.3c0-1.4,0.5-2.7,1.5-3.7c1-1,2.3-1.6,3.8-1.6c2.8,0,5.1,2.2,5.3,4.9l1.6,0
		C35.9,53.5,32.9,50.5,29.2,50.5z"/>
	<path fill="#444443" d="M60.6,50.8c-0.1,0-0.2,0-0.3,0c-0.4,0-0.8,0-1.2,0.1c-2.4,0.4-4.5,2.1-5.3,4.5l-2.5,7l1,2.1l3.1-8.6
		c0.7-2,2.6-3.4,4.7-3.5L60.6,50.8z"/>
	<path fill="#444443" d="M14.1,50.6c-0.7,0-1.3,0.1-2,0.3l0.6,1.5c0.5-0.1,0.9-0.2,1.4-0.2c2.2,0,4.2,1.4,5,3.5
		c1,2.7-0.4,5.8-3.2,6.8c-0.6,0.2-1.2,0.3-1.8,0.3c-2.2,0-4.2-1.4-5-3.5l-2.4-6.6l-1,2.1l1.8,5.1c0.8,2.3,2.9,4,5.3,4.5
		c0.4,0.1,0.8,0.1,1.2,0.1c0.8,0,1.6-0.1,2.3-0.4c1.7-0.6,3.1-1.9,3.9-3.6c0.8-1.7,0.9-3.6,0.2-5.3C19.6,52.4,17,50.6,14.1,50.6z"/>
	<path fill="#444443" d="M3,59.3l-3.1-8.6l-1,2.1l2.5,7c0.8,2.3,2.9,4,5.3,4.5c0.4,0.1,0.8,0.1,1.2,0.1c0.1,0,0.2,0,0.3,0l-0.6-1.6
		C5.6,62.7,3.7,61.4,3,59.3z"/>
</g>
</svg>
