<?xml version="1.0" encoding="utf-8"?>
<!-- Generator: Adobe Illustrator 18.0.0, SVG Export Plug-In . SVG Version: 6.00 Build 0)  -->
<!DOCTYPE svg PUBLIC "-//W3C//DTD SVG 1.1//EN" "http://www.w3.org/Graphics/SVG/1.1/DTD/svg11.dtd">
<svg version="1.1" id="Layer_1" xmlns="http://www.w3.org/2000/svg" xmlns:xlink="http://www.w3.org/1999/xlink" x="0px" y="0px"
	 viewBox="0 0 24 24" enable-background="new 0 0 24 24" xml:space="preserve">
<path fill="none" d="M0,0h24v24H0V0z"/>
<path d="M16.5,9.1h-2.8V7.2c0.2-1.8,3.1-1.4,3.1-1.4l0-0.1l0,0V2.7h0v0h0c-0.1,0-5.8-1.4-7,3c0,0,0,0,0,0c0,0,0,0,0,0
	c-0.2,0.5-0.2,3-0.2,3.4H7.2v3.3h2.6v9.1h3.8v-9.1h2.9l0.3-3.3L16.5,9.1z"/>
</svg>
